<svg width="194" height="375" viewBox="0 0 194 375" fill="none" xmlns="http://www.w3.org/2000/svg">
<g opacity="0.4" filter="url(#filter0_f_2414_6358)">
<rect x="43.9999" y="30" width="122" height="195" rx="61" fill="url(#paint0_linear_2414_6358)"/>
</g>
<g opacity="0.4" filter="url(#filter1_f_2414_6358)">
<rect x="32.577" y="22.3408" width="70" height="70" rx="35" transform="rotate(6.08 32.577 22.3408)" fill="url(#paint1_linear_2414_6358)"/>
</g>
<g opacity="0.4" filter="url(#filter2_f_2414_6358)">
<rect x="80.4142" y="168" width="70" height="70" rx="35" transform="rotate(6.08 80.4142 168)" fill="url(#paint2_linear_2414_6358)"/>
</g>
<g opacity="0.6">
<path d="M124 30.0246C124 30.1728 123.994 30.3193 123.981 30.4648C123.969 30.6004 123.952 30.7342 123.93 30.8662C123.908 30.9955 123.881 31.123 123.851 31.2477C123.76 31.612 123.629 31.961 123.465 32.2883C123.412 32.3931 123.355 32.4962 123.296 32.5974C123.184 32.7846 123.062 32.9645 122.927 33.1353C122.858 33.2221 122.788 33.3062 122.715 33.3876C122.24 33.9164 121.656 34.3431 120.998 34.6315C120.949 34.6532 120.9 34.6731 120.851 34.693C120.704 34.7517 120.555 34.8033 120.402 34.8485C120.293 34.8801 120.183 34.9081 120.071 34.9325C119.727 35.0076 119.369 35.0473 119.002 35.0473C117.584 35.0473 116.305 34.4543 115.394 33.5015C115.286 33.3885 115.184 33.27 115.087 33.1471C114.889 32.8976 114.715 32.6282 114.567 32.3434C114.529 32.2711 114.493 32.1969 114.459 32.1219C114.334 31.8498 114.233 31.565 114.158 31.2694C114.057 30.8707 114.003 30.4531 114.003 30.0228C114.003 29.7579 114.023 29.4984 114.062 29.2453C114.077 29.1477 114.094 29.0518 114.115 28.9569C114.138 28.8502 114.165 28.7454 114.193 28.6414C114.247 28.4507 114.313 28.2635 114.389 28.0827C114.525 27.7546 114.696 27.4436 114.896 27.1552C115.018 26.9789 115.151 26.8108 115.295 26.6517C115.565 26.3515 115.871 26.0848 116.206 25.857C116.217 25.8498 116.227 25.8426 116.238 25.8353C116.461 25.6862 116.697 25.5551 116.944 25.443C117.433 25.2206 117.964 25.075 118.521 25.0226C118.679 25.0072 118.838 25 118.999 25C119.48 25 119.945 25.0687 120.385 25.1953C120.572 25.2495 120.754 25.3137 120.931 25.3887C120.998 25.4168 121.064 25.4457 121.129 25.4764C121.398 25.6039 121.655 25.7558 121.896 25.9275C122.157 26.1147 122.399 26.3253 122.619 26.5576C123.042 27.0042 123.384 27.5277 123.621 28.1062C123.651 28.1786 123.68 28.2527 123.706 28.3268C123.79 28.5637 123.858 28.8087 123.906 29.0609C123.969 29.3746 124 29.6964 124 30.0246Z" fill="url(#paint3_radial_2414_6358)"/>
<path d="M124 30.0246C124 30.4468 123.948 30.8563 123.851 31.2477C121.354 30.172 117.061 32.1518 114.158 31.2703C114.057 30.8717 114.003 30.454 114.003 30.0237C114.003 29.7588 114.023 29.4994 114.062 29.2462C119.164 31.0633 121.019 28.5348 123.908 29.0636C123.969 29.3746 124 29.6964 124 30.0246Z" fill="url(#paint4_linear_2414_6358)"/>
<path d="M123.708 28.3294C120.99 27.8693 117.826 29.7533 114.195 28.6422C114.249 28.4515 114.314 28.2644 114.39 28.0835C117.337 29.2362 120.891 27.768 123.624 28.1089C123.653 28.1821 123.682 28.2553 123.708 28.3294Z" fill="url(#paint5_linear_2414_6358)"/>
<path d="M122.621 26.5605C119.762 28.3333 116.151 27.5224 114.897 27.1563C115.02 26.98 115.153 26.8118 115.296 26.6527C118.866 27.5667 121.095 26.4575 121.898 25.9304C122.159 26.1166 122.401 26.3282 122.621 26.5605Z" fill="url(#paint6_linear_2414_6358)"/>
<path d="M121.131 25.4792C119.929 26.2603 118.302 25.7378 116.208 25.8589C116.441 25.7007 116.687 25.5624 116.945 25.4449C118.213 25.5 120.002 25.9231 120.934 25.3906C121.001 25.4186 121.066 25.4485 121.131 25.4792Z" fill="url(#paint7_linear_2414_6358)"/>
<path d="M120.388 25.198C120.05 25.3634 119.422 25.5044 118.525 25.0253C118.683 25.0099 118.842 25.0027 119.003 25.0027C119.483 25.0027 119.948 25.0705 120.388 25.198Z" fill="url(#paint8_linear_2414_6358)"/>
<path d="M123.465 32.2879C123.412 32.3928 123.355 32.4958 123.296 32.5971C121.148 31.6198 117.185 32.7065 114.568 32.3448C114.53 32.2725 114.494 32.1984 114.46 32.1234C117.89 32.5492 121.61 31.1452 123.465 32.2879Z" fill="url(#paint9_linear_2414_6358)"/>
<path d="M120.402 34.8479C120.293 34.8795 120.183 34.9075 120.071 34.9319C119.148 34.781 116.297 33.1564 115.394 33.5018C115.286 33.3888 115.184 33.2703 115.087 33.1474C117.091 33.1275 119.208 34.752 120.402 34.8479Z" fill="url(#paint10_linear_2414_6358)"/>
<path d="M122.715 33.3884C122.241 33.9173 121.656 34.344 120.999 34.6323C120.056 34.3458 119.511 33.7853 119.182 33.6271C118.701 33.3947 118.556 33.2094 120.41 33.0702C121.355 32.9979 122.156 33.1868 122.715 33.3884Z" fill="url(#paint11_linear_2414_6358)"/>
<path opacity="0.45" d="M123.931 30.8657C123.601 32.8528 122.082 34.49 120.072 34.9321C116.503 35.7122 113.347 32.5192 114.117 28.9583C114.531 29.7448 115.451 30.5837 117.459 30.8965C120.498 31.3684 122.477 30.5267 123.931 30.8657Z" fill="url(#paint12_linear_2414_6358)"/>
<path opacity="0.55" d="M122.847 33.2341C122.805 33.2856 122.761 33.3372 122.716 33.3869C122.242 33.9157 121.657 34.3424 120.999 34.6308C120.951 34.6525 120.901 34.6724 120.852 34.6923C120.705 34.751 120.556 34.8026 120.403 34.8478C120.294 34.8794 120.184 34.9074 120.073 34.9319C119.728 35.0069 119.37 35.0467 119.003 35.0467C117.585 35.0467 116.306 34.4536 115.396 33.5008C115.303 33.4031 115.214 33.3028 115.129 33.1979C115.951 33.508 117.143 33.5704 118.871 33.141C120.389 32.7631 121.714 32.8662 122.847 33.2341Z" fill="url(#paint13_linear_2414_6358)"/>
<path d="M124 30.0255C124 30.1737 123.993 30.3202 123.981 30.4657C123.966 29.333 123.577 27.9778 122.209 26.7981C119.582 24.5326 116.917 25.5261 116.241 25.838C116.464 25.6888 116.699 25.5578 116.946 25.4457C117.435 25.2233 117.966 25.0777 118.524 25.0253C118.681 25.0099 118.84 25.0027 119.002 25.0027C119.482 25.0027 119.947 25.0714 120.387 25.198C120.574 25.2522 120.757 25.3164 120.934 25.3914C121 25.4194 121.066 25.4484 121.131 25.4791C121.401 25.6066 121.657 25.7585 121.898 25.9302C122.159 26.1173 122.401 26.328 122.622 26.5603C123.044 27.0069 123.386 27.5303 123.624 28.1089C123.653 28.1812 123.682 28.2554 123.708 28.3295C123.793 28.5664 123.86 28.8113 123.909 29.0636C123.968 29.3755 124 29.6973 124 30.0255Z" fill="url(#paint14_linear_2414_6358)"/>
</g>
<g opacity="0.6">
<path d="M153 222.5C153 222.573 152.997 222.646 152.991 222.719C152.985 222.786 152.976 222.853 152.965 222.918C152.954 222.983 152.941 223.046 152.925 223.108C152.88 223.289 152.815 223.463 152.732 223.626C152.706 223.678 152.677 223.729 152.648 223.78C152.592 223.873 152.531 223.962 152.463 224.047C152.429 224.09 152.394 224.132 152.357 224.173C152.12 224.436 151.828 224.648 151.499 224.792C151.475 224.802 151.45 224.812 151.425 224.822C151.352 224.851 151.277 224.877 151.201 224.9C151.146 224.915 151.091 224.929 151.036 224.941C150.863 224.979 150.684 224.998 150.501 224.998C149.792 224.998 149.152 224.703 148.697 224.229C148.643 224.173 148.592 224.114 148.543 224.053C148.444 223.929 148.358 223.795 148.283 223.653C148.264 223.617 148.246 223.58 148.229 223.543C148.167 223.408 148.116 223.266 148.079 223.119C148.028 222.921 148.001 222.713 148.001 222.499C148.001 222.367 148.012 222.238 148.031 222.112C148.039 222.063 148.047 222.016 148.058 221.969C148.069 221.915 148.082 221.863 148.097 221.812C148.124 221.717 148.157 221.624 148.194 221.534C148.263 221.37 148.348 221.216 148.448 221.072C148.509 220.984 148.576 220.901 148.647 220.822C148.783 220.672 148.936 220.54 149.103 220.426C149.108 220.423 149.114 220.419 149.119 220.416C149.231 220.341 149.349 220.276 149.472 220.22C149.716 220.11 149.982 220.037 150.261 220.011C150.339 220.004 150.419 220 150.5 220C150.74 220 150.972 220.034 151.192 220.097C151.286 220.124 151.377 220.156 151.466 220.193C151.499 220.207 151.532 220.222 151.564 220.237C151.699 220.3 151.827 220.376 151.948 220.461C152.078 220.555 152.199 220.659 152.31 220.775C152.521 220.997 152.692 221.257 152.811 221.545C152.825 221.581 152.84 221.618 152.853 221.655C152.895 221.773 152.929 221.895 152.953 222.02C152.984 222.176 153 222.336 153 222.5Z" fill="url(#paint15_radial_2414_6358)"/>
<path d="M153 222.5C153 222.71 152.974 222.913 152.925 223.108C151.677 222.573 149.531 223.558 148.079 223.119C148.028 222.921 148.001 222.713 148.001 222.499C148.001 222.367 148.012 222.238 148.031 222.112C150.582 223.016 151.509 221.759 152.954 222.022C152.984 222.176 153 222.336 153 222.5Z" fill="url(#paint16_linear_2414_6358)"/>
<path d="M152.854 221.656C151.495 221.427 149.913 222.365 148.097 221.812C148.124 221.717 148.157 221.624 148.195 221.534C149.669 222.107 151.445 221.377 152.812 221.546C152.827 221.583 152.841 221.619 152.854 221.656Z" fill="url(#paint17_linear_2414_6358)"/>
<path d="M152.311 220.776C150.881 221.658 149.076 221.255 148.449 221.073C148.51 220.985 148.576 220.901 148.648 220.822C150.433 221.277 151.547 220.725 151.949 220.463C152.08 220.556 152.201 220.661 152.311 220.776Z" fill="url(#paint18_linear_2414_6358)"/>
<path d="M151.566 220.239C150.965 220.627 150.151 220.367 149.104 220.428C149.22 220.349 149.344 220.28 149.473 220.222C150.106 220.249 151.001 220.459 151.467 220.195C151.5 220.209 151.533 220.223 151.566 220.239Z" fill="url(#paint19_linear_2414_6358)"/>
<path d="M151.194 220.098C151.025 220.18 150.711 220.251 150.263 220.012C150.341 220.005 150.421 220.001 150.502 220.001C150.742 220.001 150.974 220.035 151.194 220.098Z" fill="url(#paint20_linear_2414_6358)"/>
<path d="M152.733 223.625C152.706 223.678 152.678 223.729 152.648 223.779C151.574 223.293 149.592 223.834 148.284 223.654C148.265 223.618 148.247 223.581 148.23 223.543C149.945 223.755 151.805 223.057 152.733 223.625Z" fill="url(#paint21_linear_2414_6358)"/>
<path d="M151.201 224.899C151.146 224.915 151.092 224.929 151.036 224.941C150.574 224.866 149.148 224.058 148.697 224.229C148.643 224.173 148.592 224.114 148.543 224.053C149.546 224.043 150.604 224.851 151.201 224.899Z" fill="url(#paint22_linear_2414_6358)"/>
<path d="M152.358 224.173C152.121 224.436 151.828 224.648 151.499 224.792C151.028 224.649 150.756 224.37 150.591 224.291C150.351 224.176 150.278 224.084 151.205 224.014C151.678 223.978 152.078 224.072 152.358 224.173Z" fill="url(#paint23_linear_2414_6358)"/>
<path opacity="0.45" d="M152.965 222.918C152.8 223.907 152.041 224.721 151.036 224.941C149.252 225.329 147.673 223.741 148.058 221.969C148.265 222.361 148.725 222.778 149.729 222.933C151.249 223.168 152.238 222.75 152.965 222.918Z" fill="url(#paint24_linear_2414_6358)"/>
<path opacity="0.55" d="M152.424 224.096C152.402 224.122 152.38 224.148 152.358 224.172C152.121 224.435 151.828 224.648 151.5 224.791C151.475 224.802 151.451 224.812 151.426 224.822C151.353 224.851 151.278 224.877 151.201 224.899C151.147 224.915 151.092 224.929 151.036 224.941C150.864 224.978 150.685 224.998 150.502 224.998C149.793 224.998 149.153 224.703 148.698 224.229C148.652 224.18 148.607 224.131 148.565 224.078C148.975 224.233 149.571 224.264 150.435 224.05C151.195 223.862 151.857 223.913 152.424 224.096Z" fill="url(#paint25_linear_2414_6358)"/>
<path d="M153 222.5C153 222.574 152.997 222.646 152.99 222.719C152.983 222.155 152.788 221.481 152.104 220.894C150.791 219.767 149.458 220.261 149.12 220.417C149.232 220.342 149.35 220.277 149.473 220.221C149.717 220.111 149.983 220.038 150.262 220.012C150.34 220.005 150.42 220.001 150.501 220.001C150.741 220.001 150.973 220.035 151.193 220.098C151.287 220.125 151.378 220.157 151.467 220.194C151.5 220.208 151.533 220.223 151.565 220.238C151.7 220.301 151.828 220.377 151.949 220.462C152.079 220.556 152.2 220.66 152.311 220.776C152.522 220.998 152.693 221.258 152.812 221.546C152.826 221.582 152.841 221.619 152.854 221.656C152.896 221.774 152.93 221.896 152.954 222.021C152.984 222.176 153 222.337 153 222.5Z" fill="url(#paint26_linear_2414_6358)"/>
</g>
<g opacity="0.6">
<path d="M24.0003 64.9998C24.0003 65.0588 23.9978 65.1171 23.9927 65.175C23.988 65.2289 23.9812 65.2822 23.9722 65.3347C23.9636 65.3862 23.9528 65.4369 23.9405 65.4866C23.9042 65.6316 23.852 65.7704 23.7862 65.9007C23.7649 65.9424 23.7423 65.9834 23.7185 66.0237C23.6739 66.0982 23.625 66.1698 23.571 66.2378C23.5436 66.2724 23.5156 66.3058 23.4861 66.3382C23.2964 66.5487 23.0625 66.7185 22.7995 66.8333C22.78 66.8419 22.7603 66.8498 22.7405 66.8578C22.6818 66.8811 22.6221 66.9017 22.5609 66.9196C22.5174 66.9322 22.4735 66.9434 22.4288 66.9531C22.291 66.983 22.1478 66.9988 22.001 66.9988C21.4339 66.9988 20.9222 66.7628 20.558 66.3835C20.5148 66.3386 20.4738 66.2914 20.435 66.2425C20.3558 66.1432 20.2863 66.036 20.227 65.9226C20.2119 65.8939 20.1975 65.8644 20.1838 65.8345C20.1338 65.7262 20.0935 65.6129 20.0636 65.4952C20.0229 65.3365 20.0013 65.1703 20.0013 64.999C20.0013 64.8936 20.0096 64.7904 20.0251 64.6896C20.0312 64.6508 20.038 64.6126 20.0463 64.5748C20.0553 64.5324 20.0661 64.4906 20.0776 64.4493C20.0992 64.3733 20.1255 64.2989 20.1557 64.2269C20.2104 64.0963 20.2788 63.9725 20.3587 63.8578C20.4076 63.7876 20.4609 63.7207 20.5181 63.6574C20.6264 63.5379 20.7487 63.4318 20.8826 63.3411C20.8869 63.3382 20.8912 63.3353 20.8956 63.3325C20.9848 63.2731 21.0791 63.2209 21.1777 63.1763C21.3734 63.0878 21.5857 63.0299 21.8088 63.009C21.8718 63.0029 21.9355 63 21.9999 63C22.1921 63 22.3781 63.0273 22.5541 63.0777C22.6289 63.0993 22.702 63.1248 22.7728 63.1547C22.7995 63.1659 22.8257 63.1774 22.8517 63.1896C22.9596 63.2403 23.0622 63.3008 23.1586 63.3692C23.263 63.4436 23.3598 63.5275 23.4479 63.6199C23.617 63.7977 23.7538 64.006 23.8488 64.2363C23.8607 64.2651 23.8722 64.2946 23.8826 64.3241C23.9164 64.4183 23.9434 64.5158 23.9628 64.6162C23.9877 64.7411 24.0003 64.8692 24.0003 64.9998Z" fill="url(#paint27_radial_2414_6358)"/>
<path d="M24.0001 64.9995C24.0001 65.1675 23.9793 65.3305 23.9404 65.4863C22.9419 65.0581 21.2247 65.8461 20.0635 65.4953C20.0228 65.3366 20.0012 65.1704 20.0012 64.9991C20.0012 64.8937 20.0095 64.7904 20.025 64.6897C22.0656 65.4129 22.8076 64.4065 23.9634 64.617C23.9876 64.7408 24.0001 64.8689 24.0001 64.9995Z" fill="url(#paint28_linear_2414_6358)"/>
<path d="M23.8832 64.3251C22.7958 64.1419 21.5302 64.8918 20.0779 64.4496C20.0995 64.3736 20.1257 64.2992 20.156 64.2272C21.3348 64.686 22.7562 64.1016 23.8494 64.2373C23.8613 64.2664 23.8728 64.2956 23.8832 64.3251Z" fill="url(#paint29_linear_2414_6358)"/>
<path d="M23.4486 63.6211C22.305 64.3267 20.8606 64.004 20.359 63.8582C20.4079 63.7881 20.4612 63.7212 20.5184 63.6578C21.9463 64.0216 22.838 63.5801 23.1593 63.3704C23.2637 63.4445 23.3605 63.5287 23.4486 63.6211Z" fill="url(#paint30_linear_2414_6358)"/>
<path d="M22.8525 63.191C22.3717 63.5019 21.7208 63.2939 20.8831 63.3421C20.9763 63.2792 21.0749 63.2241 21.1781 63.1773C21.6851 63.1993 22.4009 63.3677 22.7737 63.1558C22.8003 63.1669 22.8266 63.1788 22.8525 63.191Z" fill="url(#paint31_linear_2414_6358)"/>
<path d="M22.5554 63.0784C22.4201 63.1443 22.1689 63.2004 21.8102 63.0097C21.8732 63.0036 21.9368 63.0007 22.0013 63.0007C22.1934 63.0007 22.3791 63.0277 22.5554 63.0784Z" fill="url(#paint32_linear_2414_6358)"/>
<path d="M23.786 65.9002C23.7648 65.942 23.7421 65.983 23.7183 66.0233C22.8594 65.6343 21.2739 66.0668 20.2271 65.9229C20.212 65.8941 20.1976 65.8646 20.184 65.8347C21.556 66.0042 23.044 65.4454 23.786 65.9002Z" fill="url(#paint33_linear_2414_6358)"/>
<path d="M22.5608 66.9195C22.5172 66.9321 22.4733 66.9433 22.4287 66.953C22.0595 66.8929 20.9188 66.2463 20.5579 66.3838C20.5147 66.3388 20.4737 66.2917 20.4348 66.2427C21.2365 66.2348 22.0833 66.8814 22.5608 66.9195Z" fill="url(#paint34_linear_2414_6358)"/>
<path d="M23.4861 66.3385C23.2964 66.549 23.0626 66.7188 22.7995 66.8336C22.4224 66.7195 22.2047 66.4964 22.073 66.4335C21.8805 66.341 21.8225 66.2672 22.5642 66.2118C22.942 66.1831 23.2626 66.2582 23.4861 66.3385Z" fill="url(#paint35_linear_2414_6358)"/>
<path opacity="0.45" d="M23.9722 65.3346C23.8402 66.1254 23.2328 66.777 22.4289 66.953C21.0014 67.2635 19.7387 65.9927 20.0467 64.5754C20.2123 64.8885 20.5804 65.2224 21.3835 65.3468C22.5991 65.5347 23.3907 65.1997 23.9722 65.3346Z" fill="url(#paint36_linear_2414_6358)"/>
<path opacity="0.55" d="M23.5389 66.277C23.522 66.2975 23.5043 66.318 23.4863 66.3378C23.2967 66.5483 23.0628 66.7181 22.7998 66.8329C22.7803 66.8415 22.7605 66.8494 22.7407 66.8574C22.6821 66.8807 22.6224 66.9013 22.5612 66.9192C22.5176 66.9318 22.4737 66.943 22.4291 66.9527C22.2913 66.9826 22.1481 66.9984 22.0013 66.9984C21.4342 66.9984 20.9225 66.7624 20.5583 66.3831C20.5212 66.3443 20.4856 66.3044 20.4518 66.2626C20.7803 66.386 21.2571 66.4109 21.9484 66.2399C22.5558 66.0896 23.0858 66.1306 23.5389 66.277Z" fill="url(#paint37_linear_2414_6358)"/>
<path d="M23.9998 64.9998C23.9998 65.0588 23.9972 65.1171 23.9922 65.175C23.9864 64.7242 23.8306 64.1848 23.2833 63.7153C22.2326 62.8136 21.1667 63.2091 20.8961 63.3332C20.9854 63.2738 21.0796 63.2216 21.1782 63.177C21.374 63.0885 21.5863 63.0306 21.8094 63.0097C21.8724 63.0036 21.9361 63.0007 22.0005 63.0007C22.1926 63.0007 22.3787 63.0281 22.5546 63.0784C22.6295 63.1 22.7025 63.1256 22.7734 63.1554C22.8 63.1666 22.8263 63.1781 22.8522 63.1903C22.9602 63.2411 23.0627 63.3015 23.1592 63.3699C23.2635 63.4444 23.3603 63.5282 23.4485 63.6207C23.6176 63.7984 23.7543 64.0067 23.8493 64.237C23.8612 64.2658 23.8727 64.2953 23.8832 64.3248C23.917 64.4191 23.944 64.5166 23.9634 64.6169C23.9872 64.7411 23.9998 64.8692 23.9998 64.9998Z" fill="url(#paint38_linear_2414_6358)"/>
</g>
<g filter="url(#filter3_d_2414_6358)">
<circle cx="72.5" cy="29.5" r="9.5" fill="url(#paint39_linear_2414_6358)" shape-rendering="crispEdges"/>
</g>
<g opacity="0.78" filter="url(#filter4_d_2414_6358)">
<circle cx="94.0759" cy="236.076" r="9.5" transform="rotate(170.658 94.0759 236.076)" fill="url(#paint40_linear_2414_6358)" shape-rendering="crispEdges"/>
</g>
<defs>
<filter id="filter0_f_2414_6358" x="-106" y="-120" width="422" height="495" filterUnits="userSpaceOnUse" color-interpolation-filters="sRGB">
<feFlood flood-opacity="0" result="BackgroundImageFix"/>
<feBlend mode="normal" in="SourceGraphic" in2="BackgroundImageFix" result="shape"/>
<feGaussianBlur stdDeviation="75" result="effect1_foregroundBlur_2414_6358"/>
</filter>
<filter id="filter1_f_2414_6358" x="-16.3298" y="-19.1519" width="160.006" height="160.006" filterUnits="userSpaceOnUse" color-interpolation-filters="sRGB">
<feFlood flood-opacity="0" result="BackgroundImageFix"/>
<feBlend mode="normal" in="SourceGraphic" in2="BackgroundImageFix" result="shape"/>
<feGaussianBlur stdDeviation="22.5" result="effect1_foregroundBlur_2414_6358"/>
</filter>
<filter id="filter2_f_2414_6358" x="31.5073" y="126.507" width="160.006" height="160.006" filterUnits="userSpaceOnUse" color-interpolation-filters="sRGB">
<feFlood flood-opacity="0" result="BackgroundImageFix"/>
<feBlend mode="normal" in="SourceGraphic" in2="BackgroundImageFix" result="shape"/>
<feGaussianBlur stdDeviation="22.5" result="effect1_foregroundBlur_2414_6358"/>
</filter>
<filter id="filter3_d_2414_6358" x="59" y="20" width="27" height="27" filterUnits="userSpaceOnUse" color-interpolation-filters="sRGB">
<feFlood flood-opacity="0" result="BackgroundImageFix"/>
<feColorMatrix in="SourceAlpha" type="matrix" values="0 0 0 0 0 0 0 0 0 0 0 0 0 0 0 0 0 0 127 0" result="hardAlpha"/>
<feOffset dy="4"/>
<feGaussianBlur stdDeviation="2"/>
<feComposite in2="hardAlpha" operator="out"/>
<feColorMatrix type="matrix" values="0 0 0 0 0 0 0 0 0 0 0 0 0 0 0 0 0 0 0.25 0"/>
<feBlend mode="normal" in2="BackgroundImageFix" result="effect1_dropShadow_2414_6358"/>
<feBlend mode="normal" in="SourceGraphic" in2="effect1_dropShadow_2414_6358" result="shape"/>
</filter>
<filter id="filter4_d_2414_6358" x="80.5745" y="226.575" width="27.0029" height="27.0029" filterUnits="userSpaceOnUse" color-interpolation-filters="sRGB">
<feFlood flood-opacity="0" result="BackgroundImageFix"/>
<feColorMatrix in="SourceAlpha" type="matrix" values="0 0 0 0 0 0 0 0 0 0 0 0 0 0 0 0 0 0 127 0" result="hardAlpha"/>
<feOffset dy="4"/>
<feGaussianBlur stdDeviation="2"/>
<feComposite in2="hardAlpha" operator="out"/>
<feColorMatrix type="matrix" values="0 0 0 0 0 0 0 0 0 0 0 0 0 0 0 0 0 0 0.25 0"/>
<feBlend mode="normal" in2="BackgroundImageFix" result="effect1_dropShadow_2414_6358"/>
<feBlend mode="normal" in="SourceGraphic" in2="effect1_dropShadow_2414_6358" result="shape"/>
</filter>
<linearGradient id="paint0_linear_2414_6358" x1="43.9999" y1="127.5" x2="166" y2="127.5" gradientUnits="userSpaceOnUse">
<stop stop-color="#C082FF"/>
<stop offset="1" stop-color="#7967FF"/>
</linearGradient>
<linearGradient id="paint1_linear_2414_6358" x1="32.577" y1="57.3408" x2="102.577" y2="57.3408" gradientUnits="userSpaceOnUse">
<stop stop-color="#9326CF"/>
<stop offset="0.5" stop-color="#522AA7"/>
<stop offset="1" stop-color="#1E00FF"/>
</linearGradient>
<linearGradient id="paint2_linear_2414_6358" x1="80.4142" y1="203" x2="150.414" y2="203" gradientUnits="userSpaceOnUse">
<stop stop-color="#CEA2E6"/>
<stop offset="0.5" stop-color="#522AA7"/>
<stop offset="1" stop-color="#1E00FF"/>
</linearGradient>
<radialGradient id="paint3_radial_2414_6358" cx="0" cy="0" r="1" gradientUnits="userSpaceOnUse" gradientTransform="translate(118.208 27.1881) scale(8.18847 8.22866)">
<stop stop-color="#522AA7"/>
<stop offset="1" stop-color="#200D5C"/>
</radialGradient>
<linearGradient id="paint4_linear_2414_6358" x1="118.125" y1="23.8825" x2="120.133" y2="37.8018" gradientUnits="userSpaceOnUse">
<stop stop-color="#200D5C"/>
<stop offset="1" stop-color="#522AA7"/>
</linearGradient>
<linearGradient id="paint5_linear_2414_6358" x1="118.29" y1="23.8584" x2="120.299" y2="37.7776" gradientUnits="userSpaceOnUse">
<stop stop-color="#522AA7"/>
<stop offset="1" stop-color="#9326CF"/>
</linearGradient>
<linearGradient id="paint6_linear_2414_6358" x1="118.33" y1="23.852" x2="120.339" y2="37.7713" gradientUnits="userSpaceOnUse">
<stop stop-color="#522AA7"/>
<stop offset="1" stop-color="#522AA7"/>
</linearGradient>
<linearGradient id="paint7_linear_2414_6358" x1="118.409" y1="23.8415" x2="120.417" y2="37.7609" gradientUnits="userSpaceOnUse">
<stop stop-color="#9326CF"/>
<stop offset="1" stop-color="#2B0A93"/>
</linearGradient>
<linearGradient id="paint8_linear_2414_6358" x1="119.257" y1="23.7199" x2="121.266" y2="37.6393" gradientUnits="userSpaceOnUse">
<stop stop-color="#030204"/>
<stop offset="1" stop-color="#181818"/>
</linearGradient>
<linearGradient id="paint9_linear_2414_6358" x1="117.78" y1="23.9318" x2="119.789" y2="37.8511" gradientUnits="userSpaceOnUse">
<stop stop-color="#522AA7"/>
<stop offset="1" stop-color="#522AA7"/>
</linearGradient>
<linearGradient id="paint10_linear_2414_6358" x1="116.336" y1="24.1408" x2="118.345" y2="38.0601" gradientUnits="userSpaceOnUse">
<stop stop-color="#200D5C"/>
<stop offset="1" stop-color="#9326CF"/>
</linearGradient>
<linearGradient id="paint11_linear_2414_6358" x1="119.407" y1="23.6982" x2="121.416" y2="37.6175" gradientUnits="userSpaceOnUse">
<stop stop-color="#522AA7"/>
<stop offset="1" stop-color="#9326CF"/>
</linearGradient>
<linearGradient id="paint12_linear_2414_6358" x1="118.3" y1="34.9548" x2="119.295" y2="28.0199" gradientUnits="userSpaceOnUse">
<stop stop-color="#522AA7"/>
<stop offset="1" stop-color="#200D5C"/>
</linearGradient>
<linearGradient id="paint13_linear_2414_6358" x1="119.176" y1="34.916" x2="118.794" y2="31.4988" gradientUnits="userSpaceOnUse">
<stop stop-color="#522AA7"/>
<stop offset="1" stop-color="#2B0A93"/>
</linearGradient>
<linearGradient id="paint14_linear_2414_6358" x1="123.65" y1="23.9217" x2="119.849" y2="28.4201" gradientUnits="userSpaceOnUse">
<stop stop-color="#9326CF"/>
<stop offset="1" stop-color="#9326CF"/>
</linearGradient>
<radialGradient id="paint15_radial_2414_6358" cx="0" cy="0" r="1" gradientUnits="userSpaceOnUse" gradientTransform="translate(150.104 221.089) scale(4.09421 4.09371)">
<stop stop-color="#522AA7"/>
<stop offset="1" stop-color="#200D5C"/>
</radialGradient>
<linearGradient id="paint16_linear_2414_6358" x1="150.062" y1="219.444" x2="151.057" y2="226.37" gradientUnits="userSpaceOnUse">
<stop stop-color="#200D5C"/>
<stop offset="1" stop-color="#522AA7"/>
</linearGradient>
<linearGradient id="paint17_linear_2414_6358" x1="150.145" y1="219.432" x2="151.14" y2="226.358" gradientUnits="userSpaceOnUse">
<stop stop-color="#522AA7"/>
<stop offset="1" stop-color="#9326CF"/>
</linearGradient>
<linearGradient id="paint18_linear_2414_6358" x1="150.165" y1="219.429" x2="151.16" y2="226.355" gradientUnits="userSpaceOnUse">
<stop stop-color="#522AA7"/>
<stop offset="1" stop-color="#522AA7"/>
</linearGradient>
<linearGradient id="paint19_linear_2414_6358" x1="150.204" y1="219.424" x2="151.199" y2="226.35" gradientUnits="userSpaceOnUse">
<stop stop-color="#9326CF"/>
<stop offset="1" stop-color="#2B0A93"/>
</linearGradient>
<linearGradient id="paint20_linear_2414_6358" x1="150.629" y1="219.363" x2="151.623" y2="226.289" gradientUnits="userSpaceOnUse">
<stop stop-color="#030204"/>
<stop offset="1" stop-color="#181818"/>
</linearGradient>
<linearGradient id="paint21_linear_2414_6358" x1="149.89" y1="219.468" x2="150.885" y2="226.394" gradientUnits="userSpaceOnUse">
<stop stop-color="#522AA7"/>
<stop offset="1" stop-color="#522AA7"/>
</linearGradient>
<linearGradient id="paint22_linear_2414_6358" x1="149.168" y1="219.572" x2="150.163" y2="226.499" gradientUnits="userSpaceOnUse">
<stop stop-color="#200D5C"/>
<stop offset="1" stop-color="#9326CF"/>
</linearGradient>
<linearGradient id="paint23_linear_2414_6358" x1="150.704" y1="219.352" x2="151.698" y2="226.278" gradientUnits="userSpaceOnUse">
<stop stop-color="#522AA7"/>
<stop offset="1" stop-color="#9326CF"/>
</linearGradient>
<linearGradient id="paint24_linear_2414_6358" x1="150.15" y1="224.952" x2="150.643" y2="221.502" gradientUnits="userSpaceOnUse">
<stop stop-color="#522AA7"/>
<stop offset="1" stop-color="#200D5C"/>
</linearGradient>
<linearGradient id="paint25_linear_2414_6358" x1="150.588" y1="224.933" x2="150.399" y2="223.233" gradientUnits="userSpaceOnUse">
<stop stop-color="#522AA7"/>
<stop offset="1" stop-color="#2B0A93"/>
</linearGradient>
<linearGradient id="paint26_linear_2414_6358" x1="152.825" y1="219.463" x2="150.935" y2="221.71" gradientUnits="userSpaceOnUse">
<stop stop-color="#9326CF"/>
<stop offset="1" stop-color="#9326CF"/>
</linearGradient>
<radialGradient id="paint27_radial_2414_6358" cx="0" cy="0" r="1" gradientUnits="userSpaceOnUse" gradientTransform="translate(21.6836 63.8709) scale(3.27537 3.27497)">
<stop stop-color="#522AA7"/>
<stop offset="1" stop-color="#200D5C"/>
</radialGradient>
<linearGradient id="paint28_linear_2414_6358" x1="21.6499" y1="62.5549" x2="22.4455" y2="68.0959" gradientUnits="userSpaceOnUse">
<stop stop-color="#200D5C"/>
<stop offset="1" stop-color="#522AA7"/>
</linearGradient>
<linearGradient id="paint29_linear_2414_6358" x1="21.7161" y1="62.5456" x2="22.5116" y2="68.0865" gradientUnits="userSpaceOnUse">
<stop stop-color="#522AA7"/>
<stop offset="1" stop-color="#9326CF"/>
</linearGradient>
<linearGradient id="paint30_linear_2414_6358" x1="21.7321" y1="62.5432" x2="22.5277" y2="68.0841" gradientUnits="userSpaceOnUse">
<stop stop-color="#522AA7"/>
<stop offset="1" stop-color="#522AA7"/>
</linearGradient>
<linearGradient id="paint31_linear_2414_6358" x1="21.7634" y1="62.5392" x2="22.559" y2="68.0802" gradientUnits="userSpaceOnUse">
<stop stop-color="#9326CF"/>
<stop offset="1" stop-color="#2B0A93"/>
</linearGradient>
<linearGradient id="paint32_linear_2414_6358" x1="22.1031" y1="62.4902" x2="22.8986" y2="68.0312" gradientUnits="userSpaceOnUse">
<stop stop-color="#030204"/>
<stop offset="1" stop-color="#181818"/>
</linearGradient>
<linearGradient id="paint33_linear_2414_6358" x1="21.5122" y1="62.5745" x2="22.3077" y2="68.1155" gradientUnits="userSpaceOnUse">
<stop stop-color="#522AA7"/>
<stop offset="1" stop-color="#522AA7"/>
</linearGradient>
<linearGradient id="paint34_linear_2414_6358" x1="20.9346" y1="62.6582" x2="21.7301" y2="68.1991" gradientUnits="userSpaceOnUse">
<stop stop-color="#200D5C"/>
<stop offset="1" stop-color="#9326CF"/>
</linearGradient>
<linearGradient id="paint35_linear_2414_6358" x1="22.163" y1="62.4818" x2="22.9585" y2="68.0228" gradientUnits="userSpaceOnUse">
<stop stop-color="#522AA7"/>
<stop offset="1" stop-color="#9326CF"/>
</linearGradient>
<linearGradient id="paint36_linear_2414_6358" x1="21.7199" y1="66.962" x2="22.1142" y2="64.2014" gradientUnits="userSpaceOnUse">
<stop stop-color="#522AA7"/>
<stop offset="1" stop-color="#200D5C"/>
</linearGradient>
<linearGradient id="paint37_linear_2414_6358" x1="22.0703" y1="66.9464" x2="21.9192" y2="65.5862" gradientUnits="userSpaceOnUse">
<stop stop-color="#522AA7"/>
<stop offset="1" stop-color="#2B0A93"/>
</linearGradient>
<linearGradient id="paint38_linear_2414_6358" x1="23.8597" y1="62.5705" x2="22.3484" y2="64.3683" gradientUnits="userSpaceOnUse">
<stop stop-color="#9326CF"/>
<stop offset="1" stop-color="#9326CF"/>
</linearGradient>
<linearGradient id="paint39_linear_2414_6358" x1="66.5" y1="39" x2="77" y2="22" gradientUnits="userSpaceOnUse">
<stop stop-color="#522AA7" stop-opacity="0.56"/>
<stop offset="0.7" stop-color="#200D5C" stop-opacity="0.18"/>
</linearGradient>
<linearGradient id="paint40_linear_2414_6358" x1="88.0759" y1="245.576" x2="98.5759" y2="228.576" gradientUnits="userSpaceOnUse">
<stop stop-color="#522AA7" stop-opacity="0.56"/>
<stop offset="0.7" stop-color="#200D5C" stop-opacity="0.18"/>
</linearGradient>
</defs>
</svg>
