<svg width="24" height="24" viewBox="0 0 24 24" fill="none" xmlns="http://www.w3.org/2000/svg"><g opacity="0.6"><path fill-rule="evenodd" clip-rule="evenodd" d="M12 2.25C9.571 2.25 7.183 2.428 4.848 2.771C2.87 3.061 1.5 4.795 1.5 6.741V12.759C1.5 14.705 2.87 16.439 4.848 16.729C5.725 16.858 6.609 16.963 7.5 17.045V21C7.50013 21.1482 7.54419 21.2931 7.62661 21.4163C7.70903 21.5395 7.82611 21.6356 7.96308 21.6923C8.10004 21.749 8.25074 21.7639 8.39614 21.735C8.54153 21.7061 8.67511 21.6348 8.78 21.53L12.964 17.347C13.0351 17.277 13.1303 17.2369 13.23 17.235C15.236 17.185 17.212 17.015 19.152 16.729C21.13 16.439 22.5 14.706 22.5 12.759V6.741C22.5 4.794 21.13 3.061 19.152 2.771C16.7839 2.42341 14.3935 2.24928 12 2.25ZM8.25 8.625C7.95163 8.625 7.66548 8.74353 7.4545 8.95451C7.24353 9.16549 7.125 9.45163 7.125 9.75C7.125 10.0484 7.24353 10.3345 7.4545 10.5455C7.66548 10.7565 7.95163 10.875 8.25 10.875C8.54837 10.875 8.83452 10.7565 9.0455 10.5455C9.25647 10.3345 9.375 10.0484 9.375 9.75C9.375 9.45163 9.25647 9.16549 9.0455 8.95451C8.83452 8.74353 8.54837 8.625 8.25 8.625ZM10.875 9.75C10.875 9.45163 10.9935 9.16549 11.2045 8.95451C11.4155 8.74353 11.7016 8.625 12 8.625C12.2984 8.625 12.5845 8.74353 12.7955 8.95451C13.0065 9.16549 13.125 9.45163 13.125 9.75C13.125 10.0484 13.0065 10.3345 12.7955 10.5455C12.5845 10.7565 12.2984 10.875 12 10.875C11.7016 10.875 11.4155 10.7565 11.2045 10.5455C10.9935 10.3345 10.875 10.0484 10.875 9.75ZM15.75 8.625C15.4516 8.625 15.1655 8.74353 14.9545 8.95451C14.7435 9.16549 14.625 9.45163 14.625 9.75C14.625 10.0484 14.7435 10.3345 14.9545 10.5455C15.1655 10.7565 15.4516 10.875 15.75 10.875C16.0484 10.875 16.3345 10.7565 16.5455 10.5455C16.7565 10.3345 16.875 10.0484 16.875 9.75C16.875 9.45163 16.7565 9.16549 16.5455 8.95451C16.3345 8.74353 16.0484 8.625 15.75 8.625Z" fill="currentColor"></path></g></svg>