<svg width="22" height="22" viewBox="0 0 22 22" fill="none" xmlns="http://www.w3.org/2000/svg"><path d="M19.4235 14.5625C19.3438 14.4734 19.2735 14.3937 19.2219 14.3328C19.0626 14.1453 18.8423 14.0281 18.5985 14.0047C18.3501 13.9812 18.1063 14.0516 17.9141 14.2109C17.8673 14.2484 17.8251 14.2906 17.7876 14.3375C17.7313 14.4031 17.6563 14.4875 17.5673 14.5859C16.8454 15.3922 15.5001 16.9015 15.5001 18.4625C15.5001 20.1406 16.8454 21.5047 18.5001 21.5047C20.1548 21.5047 21.5001 20.1406 21.5001 18.4625C21.5001 16.8875 20.1501 15.3734 19.4235 14.5625ZM18.5001 20C17.6751 20 17.0001 19.3062 17.0001 18.4578C17.0001 17.5672 17.9188 16.4515 18.5048 15.7859C19.0907 16.4515 20.0001 17.5672 20.0001 18.4578C20.0001 19.3062 19.3251 20 18.5001 20Z" fill="#522AA7"></path><path d="M16.911 13.7703H16.9251C17.2063 13.7703 17.4735 13.6625 17.6704 13.4609C17.8719 13.2594 17.9798 12.9969 17.9798 12.7156C17.9798 12.4344 17.8673 12.1578 17.6657 11.9609L6.82351 1.2078C5.87664 0.256241 4.32976 0.251553 3.3782 1.20312L3.13445 1.44687C2.18289 2.39374 2.1782 3.94062 3.12976 4.89218L5.07976 6.84218L1.10945 10.8078C0.720387 11.1969 0.504762 11.7125 0.500075 12.2656C0.495387 12.8187 0.711012 13.3344 1.10007 13.7234C1.10945 13.7328 1.11882 13.7422 1.13289 13.7562L7.28289 19.6625C7.68601 20.0469 8.19695 20.2391 8.71257 20.2391C9.2282 20.2391 9.74851 20.0422 10.1469 19.6578L10.8079 19.0203C12.7626 17.1312 15.7063 14.2812 16.0907 13.8969C16.1141 13.8734 16.3063 13.7703 16.911 13.7703ZM4.18914 3.83749C3.82351 3.46718 3.82351 2.87655 4.18914 2.51093L4.43289 2.26718C4.79851 1.90155 5.39382 1.90155 5.75945 2.27187L7.71414 4.21249L6.13445 5.79218L4.18914 3.83749ZM15.036 12.8234C14.6891 13.1703 11.6094 16.1516 9.76726 17.9375L9.10633 18.575C8.88601 18.7859 8.54382 18.7859 8.32351 18.5797L2.17351 12.6734L2.16414 12.6641C2.05632 12.5562 2.00007 12.4156 2.00007 12.2656C2.00007 12.1156 2.06101 11.975 2.16882 11.8672L6.13914 7.90624L8.78289 5.26249L15.9407 12.3641C15.5563 12.4531 15.2563 12.6031 15.036 12.8234Z" fill="#522AA7"></path></svg>